
<svg width="264px" height="280px" viewBox="0 0 264 280" version="1.1" xmlns="http://www.w3.org/2000/svg" xmlns:xlink="http://www.w3.org/1999/xlink">
    <defs>
        <circle id="path-ztvjcljn1n-1" cx="120" cy="120" r="120"></circle>
        <path d="M12,160 C12,226.27417 65.72583,280 132,280 C198.27417,280 252,226.27417 252,160 L264,160 L264,-1.42108547e-14 L-3.55271367e-15,-1.42108547e-14 L-3.55271367e-15,160 L12,160 Z" id="path-ztvjcljn1n-3"></path>
        <path d="M124,144.610951 L124,163 L128,163 L128,163 C167.764502,163 200,195.235498 200,235 L200,244 L0,244 L0,235 C0,195.235498 32.235498,163 72,163 L72,163 L76,163 L76,144.610951 C58.7626345,136.422372 46.3722246,119.687011 44.3051388,99.8812385 C38.4803105,99.0577866 34,94.0521096 34,88 L34,74 C34,68.0540074 38.3245733,63.1180731 44,62.1659169 L44,56 L44,56 C44,25.072054 69.072054,0 100,0 L100,0 L100,0 C130.927946,0 156,25.072054 156,56 L156,62.1659169 C161.675427,63.1180731 166,68.0540074 166,74 L166,88 C166,94.0521096 161.51969,99.0577866 155.694861,99.8812385 C153.627775,119.687011 141.237365,136.422372 124,144.610951 Z" id="path-ztvjcljn1n-5"></path>
        <path d="M124,144.610951 L124,163 L128,163 L128,163 C167.764502,163 200,195.235498 200,235 L200,244 L0,244 L0,235 C0,195.235498 32.235498,163 72,163 L72,163 L76,163 L76,144.610951 C58.7626345,136.422372 46.3722246,119.687011 44.3051388,99.8812385 C38.4803105,99.0577866 34,94.0521096 34,88 L34,74 C34,68.0540074 38.3245733,63.1180731 44,62.1659169 L44,56 L44,56 C44,25.072054 69.072054,0 100,0 L100,0 L100,0 C130.927946,0 156,25.072054 156,56 L156,62.1659169 C161.675427,63.1180731 166,68.0540074 166,74 L166,88 C166,94.0521096 161.51969,99.0577866 155.694861,99.8812385 C153.627775,119.687011 141.237365,136.422372 124,144.610951 Z" id="path-ztvjcljn1n-7"></path>
        <path d="M76,3.55271368e-15 C58.0813006,2.0050524 44.2798424,7.4809485 44.004203,21.574082 C18.1464329,32.4972077 0,58.0937401 0,87.9285994 L0,87.9285994 L0,96.9291144 L200,96.9291144 L200,87.9285994 C200,58.0937401 181.853567,32.4972077 155.995797,21.5740976 C155.720158,7.4809485 141.918699,2.0050524 124,3.55271368e-15 L124,18.9291144 L124,18.9291144 C124,32.1839484 113.254834,42.9291144 100,42.9291144 L100,42.9291144 C86.745166,42.9291144 76,32.1839484 76,18.9291144 L76,3.55271368e-15 Z" id="path-ztvjcljn1n-9"></path>
        <path d="M76,3.55271368e-15 C58.0813006,2.0050524 44.2798424,7.4809485 44.004203,21.574082 C18.1464329,32.4972077 0,58.0937401 0,87.9285994 L0,87.9285994 L0,96.9291144 L200,96.9291144 L200,87.9285994 C200,58.0937401 181.853567,32.4972077 155.995797,21.5740976 C155.720158,7.4809485 141.918699,2.0050524 124,3.55271368e-15 L124,18.9291144 L124,18.9291144 C124,32.1839484 113.254834,42.9291144 100,42.9291144 L100,42.9291144 C86.745166,42.9291144 76,32.1839484 76,18.9291144 L76,3.55271368e-15 Z" id="path-ztvjcljn1n-11"></path>
        <path d="M76,3.55271368e-15 C58.0813006,2.0050524 44.2798424,7.4809485 44.004203,21.574082 C18.1464329,32.4972077 0,58.0937401 0,87.9285994 L0,87.9285994 L0,96.9291144 L200,96.9291144 L200,87.9285994 C200,58.0937401 181.853567,32.4972077 155.995797,21.5740976 C155.720158,7.4809485 141.918699,2.0050524 124,3.55271368e-15 L124,18.9291144 L124,18.9291144 C124,32.1839484 113.254834,42.9291144 100,42.9291144 L100,42.9291144 C86.745166,42.9291144 76,32.1839484 76,18.9291144 L76,3.55271368e-15 Z" id="path-ztvjcljn1n-13"></path>
        <path d="M0.00775120871,2.1280772 C1.06561931,11.6198025 9.11589451,19 18.8899072,19 C28.6941127,19 36.7639147,11.574136 37.7816665,2.0400546 C37.8635757,1.272746 37.0066501,0 35.9326742,0 C21.0386608,0 9.62782851,0 1.97673161,0 C0.896524009,0 -0.0980869913,1.1784435 0.00775120871,2.1280772 Z" id="path-ztvjcljn1n-15"></path>
        <path d="M0.00775120871,2.1280772 C1.06561931,11.6198025 9.11589451,19 18.8899072,19 C28.6941127,19 36.7639147,11.574136 37.7816665,2.0400546 C37.8635757,1.272746 37.0066501,0 35.9326742,0 C21.0386608,0 9.62782851,0 1.97673161,0 C0.896524009,0 -0.0980869913,1.1784435 0.00775120871,2.1280772 Z" id="path-ztvjcljn1n-17"></path>
        <rect id="path-ztvjcljn1n-19" x="0" y="0" width="264" height="280"></rect>
        <path d="M74.428403,72.1685688 C71.9148372,74.462621 69.23722,75.494309 65.8529444,74.772863 C65.2705777,74.648833 62.8963391,70.2345713 56.9998344,70.2345713 C51.1033297,70.2345713 48.7294253,74.648833 48.1467245,74.772863 C44.7624488,75.494309 42.0848316,74.462621 39.5712661,72.1685688 C34.8461772,67.855604 30.9166219,61.9081858 33.2778299,55.4191814 C34.5083844,52.0369425 36.5097479,48.3237342 40.1506257,47.2459109 C44.0384163,46.0955419 49.4968931,47.2439051 53.4147542,46.4582708 C54.6840664,46.2035248 56.0706538,45.7508657 56.9998344,45 C57.929015,45.7508657 59.3159365,46.2035248 60.5845805,46.4582708 C64.5027758,47.2439051 69.9612525,46.0955419 73.849043,47.2459109 C77.489921,48.3237342 79.491284,52.0369425 80.722173,55.4191814 C83.083381,61.9081858 79.153826,67.855604 74.428403,72.1685688 M113.081033,0 C109.670693,8.4002532 110.987774,18.8580348 110.356666,27.6758724 C109.844038,34.8431942 108.33712,45.5857526 101.972858,50.214531 C98.718361,52.5816138 92.79436,56.5598986 88.54187,55.4501943 C85.614539,54.6863848 85.302182,46.290096 81.455284,43.1469801 C77.09172,39.5823153 71.6429854,38.0160432 66.1491481,38.2578722 C63.7785381,38.3622683 58.9841367,38.3374908 56.9999331,40.1604584 C55.0157295,38.3374908 50.2216647,38.3622683 47.8510547,38.2578722 C42.3568808,38.0160432 36.9081467,39.5823153 32.5445817,43.1469801 C28.6976839,46.290096 28.3856641,54.6863848 25.4583326,55.4501943 C21.2058427,56.5598986 15.2818421,52.5816138 12.0270077,50.214531 C5.6624096,45.5857526 4.1561652,34.8431942 3.642864,27.6758724 C3.0120926,18.8580348 4.3291729,8.4002532 0.918833499,0 C-0.740223201,0 0.354033899,16.1288693 0.354033899,16.1288693 L0.354033899,36.4851205 C0.385673499,51.7732046 9.935095,74.655445 31.1080116,83.393004 C36.2861266,85.52982 48.0153111,89 56.9999331,89 C65.9845551,89 77.71374,85.860188 82.891855,83.723371 C104.064771,74.985813 113.614193,51.7732046 113.646169,36.4851205 L113.646169,16.1288693 C113.646169,16.1288693 114.740089,0 113.081033,0" id="path-ztvjcljn1n-21"></path>
        <path d="M68.7879252,0.0932416063 L68.8174449,0.0784129976 C68.9102221,0.0407138183 69.0577253,0.0649262756 69.2730311,0.166863635 C71.2315355,1.09442628 72.4380426,2.74098827 74.1022175,4.65271796 C75.9021653,6.72083429 80.060524,12.3791057 80.3654265,12.7594209 L80.3805127,12.7796109 C81.3224021,10.9160476 82.099844,8.77021114 82.4181598,6.49699851 C82.4743145,6.09611665 82.5096335,5.50658671 82.5514606,4.89027241 L82.5844786,4.42554374 C82.6872222,3.06502735 82.8543074,1.77047913 83.3752409,2.25564957 L83.4054491,2.24234239 C83.5000722,2.20955045 83.6461061,2.24144945 83.8557819,2.35451535 C85.7630573,3.383307 86.8817365,5.09075613 88.4435785,7.08696206 C89.0665983,7.88341374 89.9844232,9.18433667 90.9091261,10.5291337 C93.2841225,9.57720229 95.8976674,8.10112768 98.0164863,5.98018087 C99.0024397,4.99333171 101.139059,2.06833745 101.333404,3.16916683 C101.438015,3.18206454 101.546588,3.29521147 101.657631,3.53702924 C102.561707,5.50648581 102.427555,7.54335326 102.473551,10.0775342 C102.488081,10.8825006 102.459404,12.0553384 102.411368,13.322925 C102.438245,13.3435244 102.466503,13.3651713 102.494877,13.3870113 C102.727986,13.2431669 102.974724,13.1152098 103.235326,13.0066177 C103.469072,12.9092955 105.490798,11.9849382 107.587083,11.0617951 L108.111717,10.8315139 C109.422225,10.2582707 110.706082,9.71246302 111.544974,9.39630008 C113.664841,8.59756306 115.296433,7.84580894 117.310614,7.78204218 C117.323101,7.78164806 117.335314,7.78135711 117.347255,7.7811681 L117.441598,7.73770059 C118.398807,7.32139485 117.935091,8.35910037 117.401821,9.38942333 L117.273193,9.63581086 C117.058893,10.0437264 116.850761,10.4317549 116.735287,10.7063671 C115.754876,13.0375187 115.733673,15.5061751 116.070596,17.4817558 C116.974935,18.3142289 117.942379,19.421494 118.839368,20.7469567 C120.927615,20.1839655 124.479616,18.5361911 126.76896,15.6298693 C127.398073,14.831293 128.675852,12.5209811 128.940312,13.3202428 C129.020194,13.3215452 129.11335,13.396963 129.222271,13.566182 C130.112499,14.9496105 130.23454,16.458405 130.545412,18.3200461 C130.881482,20.3338251 131.308764,25.5238008 131.353801,25.8832368 C131.522454,27.2330092 130.927452,28.6310373 130.054067,29.8348427 C132.368068,31.0093327 136.716229,32.3833392 140.920191,31.7349458 C141.272152,31.6806797 141.780724,31.5566072 142.309977,31.4336608 L142.744861,31.3347585 C143.835848,31.0939953 144.857504,30.9398363 144.627077,31.4894909 C144.695182,31.556417 144.720031,31.695667 144.685923,31.9287848 C144.408298,33.8246094 143.353116,35.2138516 142.193246,37.0560816 C141.754051,37.753497 141.024757,38.7929452 140.252064,39.8643065 L139.751782,40.5543836 L139.457032,40.9580647 C138.283831,42.5611627 137.204093,43.9946976 137.078182,44.1771298 C137.009576,44.2764579 136.936738,44.3724145 136.85995,44.4650818 C138.817479,46.1208804 141.356756,47.7452032 144.235934,48.6238766 C144.623096,48.7420517 145.199843,48.8691586 145.802026,49.0068836 L146.104478,49.0766388 L146.406609,49.1482104 C147.808714,49.486523 149.051407,49.8857053 148.049397,50.3671784 C146.096019,51.3054881 144.05712,51.2069052 141.524128,51.2971215 L141.400053,51.3011465 C143.002199,52.7728648 145.048499,54.2013913 147.369325,55.011048 C147.708595,55.1294271 148.222012,55.2599097 148.752076,55.4012795 L149.070852,55.4873981 C150.184741,55.7933175 151.23313,56.1461761 150.757416,56.5347079 C150.786113,56.6261176 150.742592,56.760601 150.603267,56.9501017 C149.468103,58.4936788 147.884223,59.2249289 145.995244,60.3069951 C145.177869,60.7751001 143.816212,61.4597651 142.452745,62.1251403 L141.942419,62.3732912 C141.217656,62.7245222 140.511762,63.0618091 139.907672,63.3490957 C141.799109,65.5385604 144.144175,67.6524084 146.850057,69.1108814 C148.464624,69.9812435 153.088007,71.5094514 151.090532,72.2456973 C148.612585,73.1586423 146.206182,72.6289432 143.181106,72.2634071 C142.20053,72.1448044 140.553552,72.3702168 138.712048,72.7414912 C140.332741,75.8361885 143.472545,80.1764168 147.638817,82.547796 C148.005764,82.756683 148.559208,83.0086289 149.136363,83.2777529 L149.426163,83.4136266 L149.706118,83.5471661 C151.051342,84.1964101 152.234254,84.8931864 151.172546,85.3064341 C149.107591,86.1098257 147.102255,85.6436905 144.581358,85.3220187 C144.12011,85.2631056 143.539456,85.1686196 142.890654,85.0518654 C144.601702,88.4680033 146.898171,91.9762239 149.638817,94.2452192 C150.005764,94.5490547 150.559208,94.9155215 151.136363,95.3069747 L151.426163,95.5046092 C152.877506,96.5014498 154.307476,97.6152417 153.172546,98.2577837 C151.107591,99.4263533 149.102255,98.7483384 146.581358,98.2804521 C143.854507,97.7738512 136.954344,95.458822 136.471979,95.3340184 C134.259758,94.7602771 132.284688,91.5205676 130.866554,87.9292462 C129.386027,85.5981727 127.622865,78.730037 127.057277,74.0985247 C125.631357,72.0390893 125.355466,67.4780378 125.433898,62.9738323 L125.449557,62.2458986 C125.450477,62.2097676 125.451417,62.1736492 125.452377,62.1375447 C124.546829,57.4282954 123.226004,51.809933 121.523363,46.4875212 C120.728673,44.7247756 119.886992,43.1411083 119.05401,41.7521476 L118.750789,41.4162884 C115.282647,37.5890818 112.493797,35.16571 111.099715,34.2528943 C103.412047,32.1951816 98.0330991,31.98424 97.1262478,32.3911816 C96.7678939,32.5519911 95.9625476,32.561546 94.9255979,32.4504384 C93.1286691,32.5984435 91.2487389,32.7333121 89.3345475,32.8524234 L88.4863796,32.9040408 C88.2030186,32.9209013 87.9190718,32.9374148 87.6346972,32.9535765 L86.7804482,33.0010009 C84.4998714,33.1246251 82.2020293,33.2254161 79.9678147,33.3008647 C79.862466,33.3044138 79.6377167,33.3064576 79.307881,33.30726 L78.4454602,33.3071755 C75.0693456,33.3012017 66.8533298,33.2415112 59.013929,33.2242946 L58.0753425,33.2224386 C57.2952499,33.2210721 56.5210102,33.2201689 55.7578397,33.219825 L54.3972143,33.219831 C52.2181282,33.2208857 50.159545,33.2271777 48.350433,33.2410851 C47.874703,33.4602949 47.447889,33.665229 47.1147841,33.849175 C38.6568992,38.5191731 32.7784784,47.9886985 31.0083534,52.5572673 C29.1016512,60.3001137 28.0402752,67.3817846 27.9271547,70.0742662 C27.7304568,74.7561041 25.3387221,84.4933106 23.5755746,86.3673303 C23.5257982,86.4202367 23.4764112,86.4716443 23.4274103,86.5215725 C22.5870162,88.6394807 21.6209625,90.2140579 20.5867047,90.6221467 C20.2201066,90.7664508 14.9759829,93.4432033 12.9035765,94.0289607 C10.9876948,94.5699542 9.46363945,95.3539089 7.89427316,94.0027503 C6.62920543,92.9131063 9.55734797,90.6513586 10.5799075,89.3632226 C13.2522451,85.997253 15.3689102,80.2726973 16.7053551,75.4397285 C16.264469,75.5774147 15.8095564,75.7171142 15.352439,75.8550959 L14.7824974,76.025834 C13.1693618,76.5052102 11.5916281,76.9394246 10.5838791,77.1266467 C8.06298208,77.594533 6.05764609,78.2725478 3.99269045,77.1039782 C2.81993029,76.4400182 4.38591188,75.2728679 5.88418483,74.2515313 L6.17257403,74.0558483 C6.69697418,73.7010732 7.19005157,73.3699297 7.52641984,73.0914138 C9.2450134,71.6685809 10.7889459,69.7584542 12.1237202,67.6892355 L11.8992654,67.6478391 L11.3212132,67.5430843 C10.4504352,67.3842818 9.56936189,67.2188563 8.76376673,67.0588779 L8.23882652,66.9531651 C7.55632555,66.8136439 6.94852198,66.680546 6.47565721,66.5623486 C4.01677399,65.9474651 2.00193377,65.6199829 0.286327006,64.2960473 C-0.586132299,63.6225946 0.682724881,63.4869843 2.10957183,63.4463067 C2.89718802,62.8446493 4.59551336,62.0660335 5.3711925,61.5818249 C9.42685382,59.0503958 12.167614,54.9241875 13.4051783,52.2092318 C12.777065,52.0799772 12.2191123,51.9568679 11.7783817,51.8467028 C9.31949849,51.2318193 7.30465827,50.9043371 5.58905151,49.5804015 C5.57845338,49.5722208 5.56817122,49.5641195 5.55820148,49.5560967 L5.44159483,49.5370761 C4.31009523,49.3240008 5.52729874,48.57298 6.84919682,47.8606554 L7.26031799,47.6414699 C7.80633647,47.3525812 8.33053335,47.0805323 8.673917,46.8661791 C12.2006646,44.664883 14.7331097,41.2576462 16.1474366,38.6211272 L16.1371694,38.6105622 C15.1325527,37.5462979 14.192524,36.5246384 13.6054971,35.824201 C11.9776383,33.8814545 10.5400875,32.4322225 9.93032228,30.3527278 C9.9264966,30.3396749 9.92288663,30.32688 9.91948983,30.3143402 L9.83649337,30.2310039 C9.04633349,29.3935436 10.4725107,29.5014093 11.9606427,29.7021188 L12.2687094,29.74469 L12.5173885,29.7800719 L13.0007539,29.8491605 C13.3919942,29.9043038 13.7480067,29.9508711 14.0214108,29.9701142 C19.3486556,30.3453182 24.5181916,28.1462121 26.8548922,26.6082773 C26.2364766,24.6054045 25.3026625,22.5107342 23.9460936,20.6455466 C23.6484916,20.2363233 23.1227115,19.6376808 22.6267799,19.039932 L22.4306108,18.8013313 C21.6459355,17.8368889 21.0305694,16.9416671 21.6882228,16.929732 C21.7181808,16.8280673 21.8469164,16.7387426 22.1026218,16.6670374 C24.1892597,16.0821833 26.180064,16.5333196 28.6902402,16.8843233 C29.7092949,17.0269238 31.3108293,17.3332373 32.9394387,17.6648907 L33.7534283,17.8321884 C35.5108186,18.1964661 37.1913462,18.5634169 38.0888624,18.7571115 L38.3541985,18.8141902 C38.5503841,18.8561972 38.6823284,18.883829 38.7356197,18.8934949 C39.0037531,18.9422232 39.267587,19.0130987 39.5266248,19.1037444 C39.6115503,16.7610531 39.3704609,14.1249457 38.5050795,11.6157873 C38.0503591,10.2971288 36.3582832,7.09496476 37.4323129,7.40221199 C37.4904863,7.31378392 37.6397296,7.26594882 37.9053621,7.27214103 C40.0718186,7.32291617 41.8437348,8.33639475 44.1416047,9.40596582 C46.2449009,10.3852256 50.9367003,13.0261897 52.5924773,13.9506624 C52.87823,12.2642526 52.9872969,10.4587839 52.7957839,8.64541422 C52.7532884,8.24285522 52.644938,7.66229241 52.5364228,7.05416637 L52.4824556,6.7485029 L52.4302857,6.44242445 C52.2162576,5.15439286 52.09919,3.96712211 52.6981634,4.29840363 C52.7744499,4.2254778 52.9307136,4.21229825 53.188545,4.27818827 C55.2880534,4.81500872 56.7865724,6.20110632 58.7849469,7.76017262 C59.6495441,8.43484181 60.9941595,9.60138104 62.3202426,10.7785168 L62.7609001,11.1706277 C63.6071464,11.9253807 64.4228147,12.6623981 65.0752815,13.2536526 C66.4650783,10.8769437 67.7618812,7.73932539 68.0541801,4.37890899 C68.1751168,2.98932971 67.9317777,-0.624109894 68.7879252,0.0932416063 Z" id="path-ztvjcljn1n-23"></path>
    </defs>
    <g id="Page-1" stroke="none" stroke-width="1" fill="none" fill-rule="evenodd">
        <g id="avataaars(1)">
            <g id="Circle" transform="translate(12, 40)">
                <g id="Circle-Background" fill="#E6E6E6" fill-rule="nonzero">
                    <circle id="react-path-1" cx="120" cy="120" r="120"></circle>
                </g>
                <g id="Color/Palette/Blue-01-Clipped">
                    <mask id="mask-ztvjcljn1n-2" fill="white">
                        <use xlink:href="#path-ztvjcljn1n-1"></use>
                    </mask>
                    <g id="react-path-1"></g>
                    <g id="Color/Palette/Blue-01" mask="url(#mask-ztvjcljn1n-2)" fill="#219ebc" fill-rule="nonzero">
                        <rect id="ðŸ–Color" x="0" y="0" width="240" height="240"></rect>
                    </g>
                </g>
            </g>
            <g id="Avataaar-Clipped">
                <mask id="mask-ztvjcljn1n-4" fill="white">
                    <use xlink:href="#path-ztvjcljn1n-3"></use>
                </mask>
                <g id="react-path-2"></g>
                <g id="Avataaar" mask="url(#mask-ztvjcljn1n-4)">
                    <g transform="translate(0, 0)">
                        <g id="Body" transform="translate(32, 36)">
                            <g id="react-path-3-link" fill="#D0C6AC" fill-rule="nonzero">
                                <path d="M124,144.610951 L124,163 L128,163 L128,163 C167.764502,163 200,195.235498 200,235 L200,244 L0,244 L0,235 C0,195.235498 32.235498,163 72,163 L72,163 L76,163 L76,144.610951 C58.7626345,136.422372 46.3722246,119.687011 44.3051388,99.8812385 C38.4803105,99.0577866 34,94.0521096 34,88 L34,74 C34,68.0540074 38.3245733,63.1180731 44,62.1659169 L44,56 L44,56 C44,25.072054 69.072054,0 100,0 L100,0 L100,0 C130.927946,0 156,25.072054 156,56 L156,62.1659169 C161.675427,63.1180731 166,68.0540074 166,74 L166,88 C166,94.0521096 161.51969,99.0577866 155.694861,99.8812385 C153.627775,119.687011 141.237365,136.422372 124,144.610951 Z" id="react-path-3"></path>
                            </g>
                            <g id="Skin/ðŸ‘¶ðŸ½-03-Brown-Clipped">
                                <mask id="mask-ztvjcljn1n-6" fill="white">
                                    <use xlink:href="#path-ztvjcljn1n-5"></use>
                                </mask>
                                <g id="react-path-3"></g>
                                <g id="Skin/ðŸ‘¶ðŸ½-03-Brown" mask="url(#mask-ztvjcljn1n-6)" fill="#FFDBB4" fill-rule="nonzero">
                                    <g id="Color">
                                        <rect id="Rectangle" x="0" y="0" width="264" height="280"></rect>
                                    </g>
                                </g>
                            </g>
                            <g id="Neck-Shadow-Clipped">
                                <mask id="mask-ztvjcljn1n-8" fill="white">
                                    <use xlink:href="#path-ztvjcljn1n-7"></use>
                                </mask>
                                <g id="react-path-3"></g>
                                <path d="M156,79 L156,102 C156,132.927946 130.927946,158 100,158 C69.072054,158 44,132.927946 44,102 L44,79 L44,94 C44,124.927946 69.072054,150 100,150 C130.927946,150 156,124.927946 156,94 L156,79 Z" id="Neck-Shadow" fill-opacity="0.100000001" fill="#000000" fill-rule="nonzero" mask="url(#mask-ztvjcljn1n-8)"></path>
                            </g>
                        </g>
                        <g id="Clothing/Hoodie" transform="translate(32, 183.0709)">
                            <g id="Hoodie" fill="#B7C1DB">
                                <path d="M76,3.55271368e-15 C58.0813006,2.0050524 44.2798424,7.4809485 44.004203,21.574082 C18.1464329,32.4972077 0,58.0937401 0,87.9285994 L0,87.9285994 L0,96.9291144 L200,96.9291144 L200,87.9285994 C200,58.0937401 181.853567,32.4972077 155.995797,21.5740976 C155.720158,7.4809485 141.918699,2.0050524 124,3.55271368e-15 L124,18.9291144 L124,18.9291144 C124,32.1839484 113.254834,42.9291144 100,42.9291144 L100,42.9291144 C86.745166,42.9291144 76,32.1839484 76,18.9291144 L76,3.55271368e-15 Z" id="react-path-235"></path>
                            </g>
                            <g id="Color/Palette/Gray-01-Clipped">
                                <mask id="mask-ztvjcljn1n-10" fill="white">
                                    <use xlink:href="#path-ztvjcljn1n-9"></use>
                                </mask>
                                <g id="react-path-235"></g>
                                <g id="Color/Palette/Gray-01" mask="url(#mask-ztvjcljn1n-10)" fill="#25557C">
                                    <g transform="translate(-32, -13.0709)" id="ðŸ–Color">
                                        <rect x="0" y="0" width="264" height="110"></rect>
                                    </g>
                                </g>
                            </g>
                            <g id="Straps-Clipped">
                                <mask id="mask-ztvjcljn1n-12" fill="white">
                                    <use xlink:href="#path-ztvjcljn1n-11"></use>
                                </mask>
                                <g id="react-path-235"></g>
                                <path d="M70,48.6681675 L70,96.9291144 L63,96.9291144 L63,45.0793769 C65.2037542,46.389172 67.5467694,47.5899022 70,48.6681675 Z M137,45.0793769 L137,85.4291144 C137,87.3621114 135.432997,88.9291144 133.5,88.9291144 C131.567003,88.9291144 130,87.3621114 130,85.4291144 L130,48.6681675 C132.453231,47.5899022 134.796246,46.389172 137,45.0793769 Z" id="Straps" fill="#F4F4F4" mask="url(#mask-ztvjcljn1n-12)"></path>
                            </g>
                            <g id="Shadow-Clipped">
                                <mask id="mask-ztvjcljn1n-14" fill="white">
                                    <use xlink:href="#path-ztvjcljn1n-13"></use>
                                </mask>
                                <g id="react-path-235"></g>
                                <path d="M58.9601329,-0.3465319 C43.9093095,2.5002926 33.5,8.1719991 33.5,19.2368067 C33.5,38.9491239 66.5376807,54.9291144 100,54.9291144 C133.462319,54.9291144 166.5,38.9491239 166.5,19.2368067 C166.5,8.1719991 156.09069,2.5002926 141.039867,-0.3465319 C150.124921,3.0035742 156,8.635169 156,18.0060375 C156,38.3980898 128.178795,54.9291144 100,54.9291144 C71.821205,54.9291144 44,38.3980898 44,18.0060375 C44,8.635169 49.8750795,3.0035742 58.9601329,-0.3465319 Z" id="Shadow" fill-opacity="0.16" fill="#000000" mask="url(#mask-ztvjcljn1n-14)"></path>
                            </g>
                        </g>
                        <g id="Face" transform="translate(87.5341, 86.7155)">
                            <g id="Mouth/Smile" transform="translate(25.5759, 60.2845)">
                                <g id="Mouth" fill="#000000" fill-opacity="0.699999988">
                                    <path d="M0.00775120871,2.1280772 C1.06561931,11.6198025 9.11589451,19 18.8899072,19 C28.6941127,19 36.7639147,11.574136 37.7816665,2.0400546 C37.8635757,1.272746 37.0066501,0 35.9326742,0 C21.0386608,0 9.62782851,0 1.97673161,0 C0.896524009,0 -0.0980869913,1.1784435 0.00775120871,2.1280772 Z" id="react-path-363"></path>
                                </g>
                                <g id="Teeth-Clipped">
                                    <mask id="mask-ztvjcljn1n-16" fill="white">
                                        <use xlink:href="#path-ztvjcljn1n-15"></use>
                                    </mask>
                                    <g id="react-path-363"></g>
                                    <rect id="Teeth" fill="#FFFFFF" mask="url(#mask-ztvjcljn1n-16)" x="3.88990721" y="-11" width="31" height="16" rx="5"></rect>
                                </g>
                                <g id="Tongue-Clipped">
                                    <mask id="mask-ztvjcljn1n-18" fill="white">
                                        <use xlink:href="#path-ztvjcljn1n-17"></use>
                                    </mask>
                                    <g id="react-path-363"></g>
                                    <g id="Tongue" mask="url(#mask-ztvjcljn1n-18)">
                                        <g transform="translate(2.8899, 11)" id="Group">
                                            <circle id="Oval" fill="#FF4F6D" cx="11" cy="11" r="11"></circle>
                                            <circle id="Oval" fill="#FF4F6D" cx="21" cy="11" r="11"></circle>
                                        </g>
                                    </g>
                                </g>
                            </g>
                            <g id="Nose/Default" transform="translate(32.4659, 43.2845)" fill="#000000" fill-opacity="0.16" fill-rule="nonzero">
                                <path d="M0,0 C0,4.418278 5.372583,8 12,8 L12,8 C18.627417,8 24,4.418278 24,0" id="Nose"></path>
                            </g>
                            <g id="Eyes/Happy-ðŸ˜" transform="translate(4.4659, 19.2845)" fill="#000000" fill-opacity="0.599999964" fill-rule="nonzero">
                                <path d="M0.160167405,6.4473116 C2.00667601,2.648508 6.16442251,0 10.9975803,0 C15.8136766,0 19.9591217,2.629842 21.8153518,6.4071242 C22.3667605,7.5291977 21.5821037,8.4474817 20.790607,7.7670228 C18.3395063,5.6597833 14.8587163,4.3437884 10.9975803,4.3437884 C7.25720611,4.3437884 3.87375841,5.5787519 1.43753921,7.5716412 C0.546792805,8.3002944 -0.379898795,7.5583844 0.160167405,6.4473116 Z" id="Squint"></path>
                                <path d="M58.1601674,6.4473116 C60.006676,2.648508 64.1644225,0 68.9975803,0 C73.8136766,0 77.9591217,2.629842 79.8153518,6.4071242 C80.3667605,7.5291977 79.5821037,8.4474817 78.790607,7.7670228 C76.3395063,5.6597833 72.8587163,4.3437884 68.9975803,4.3437884 C65.2572061,4.3437884 61.8737584,5.5787519 59.4375392,7.5716412 C58.5467928,8.3002944 57.6201012,7.5583844 58.1601674,6.4473116 Z" id="Squint"></path>
                            </g>
                            <g id="Eyebrow/Natural/Default-Natural" transform="translate(0, 0)" fill="#000000" fill-opacity="0.599999964" fill-rule="nonzero">
                                <path d="M14.5049484,1.49462797 C8.74341035,2.26796649 -0.241213747,7.28975223 0.510114953,13.1023154 C0.534803053,13.2925586 0.822585153,13.3518511 0.946762653,13.192998 C3.43325905,10.0048394 22.6586523,5.32105243 29.6601223,6.29921943 C30.3009073,6.38895083 30.7239212,5.72753863 30.2869051,5.31471103 C26.5424213,1.77935859 19.6662342,0.796752579 14.5049484,1.49462797" id="Eyebrow" transform="translate(15.4659, 7.2845) rotate(5) translate(-15.4659, -7.2845)"></path>
                                <path d="M73.5049486,1.49462796 C67.7434106,2.26796648 58.7587865,7.28975222 59.5101152,13.1023154 C59.5348033,13.2925586 59.8225854,13.3518511 59.9467629,13.192998 C62.4332593,10.0048394 81.6586525,5.32105242 88.6601222,6.29921942 C89.3009072,6.38895082 89.7239212,5.72753862 89.2869052,5.31471102 C85.5424215,1.77935858 78.6662344,0.796752571 73.5049486,1.49462796" id="Eyebrow" transform="translate(74.4659, 7.2845) scale(-1, 1) rotate(5) translate(-74.4659, -7.2845)"></path>
                            </g>
                        </g>
                        <g id="Top/Short-Hair/Dreads-01-Clipped">
                            <mask id="mask-ztvjcljn1n-20" fill="white">
                                <use xlink:href="#path-ztvjcljn1n-19"></use>
                            </mask>
                            <g id="react-path-621"></g>
                            <g id="Top/Short-Hair/Dreads-01" mask="url(#mask-ztvjcljn1n-20)">
                                <g transform="translate(54.4174, 16.2482)" id="Group">
                                    <g transform="translate(0, 0)">
                                        <g id="Facial-Hair/Beard-Light" transform="translate(20.5826, 81.7518)">
                                            <g id="Lite-Beard" fill="#331B0C">
                                                <path d="M74.428403,72.1685688 C71.9148372,74.462621 69.23722,75.494309 65.8529444,74.772863 C65.2705777,74.648833 62.8963391,70.2345713 56.9998344,70.2345713 C51.1033297,70.2345713 48.7294253,74.648833 48.1467245,74.772863 C44.7624488,75.494309 42.0848316,74.462621 39.5712661,72.1685688 C34.8461772,67.855604 30.9166219,61.9081858 33.2778299,55.4191814 C34.5083844,52.0369425 36.5097479,48.3237342 40.1506257,47.2459109 C44.0384163,46.0955419 49.4968931,47.2439051 53.4147542,46.4582708 C54.6840664,46.2035248 56.0706538,45.7508657 56.9998344,45 C57.929015,45.7508657 59.3159365,46.2035248 60.5845805,46.4582708 C64.5027758,47.2439051 69.9612525,46.0955419 73.849043,47.2459109 C77.489921,48.3237342 79.491284,52.0369425 80.722173,55.4191814 C83.083381,61.9081858 79.153826,67.855604 74.428403,72.1685688 M113.081033,0 C109.670693,8.4002532 110.987774,18.8580348 110.356666,27.6758724 C109.844038,34.8431942 108.33712,45.5857526 101.972858,50.214531 C98.718361,52.5816138 92.79436,56.5598986 88.54187,55.4501943 C85.614539,54.6863848 85.302182,46.290096 81.455284,43.1469801 C77.09172,39.5823153 71.6429854,38.0160432 66.1491481,38.2578722 C63.7785381,38.3622683 58.9841367,38.3374908 56.9999331,40.1604584 C55.0157295,38.3374908 50.2216647,38.3622683 47.8510547,38.2578722 C42.3568808,38.0160432 36.9081467,39.5823153 32.5445817,43.1469801 C28.6976839,46.290096 28.3856641,54.6863848 25.4583326,55.4501943 C21.2058427,56.5598986 15.2818421,52.5816138 12.0270077,50.214531 C5.6624096,45.5857526 4.1561652,34.8431942 3.642864,27.6758724 C3.0120926,18.8580348 4.3291729,8.4002532 0.918833499,0 C-0.740223201,0 0.354033899,16.1288693 0.354033899,16.1288693 L0.354033899,36.4851205 C0.385673499,51.7732046 9.935095,74.655445 31.1080116,83.393004 C36.2861266,85.52982 48.0153111,89 56.9999331,89 C65.9845551,89 77.71374,85.860188 82.891855,83.723371 C104.064771,74.985813 113.614193,51.7732046 113.646169,36.4851205 L113.646169,16.1288693 C113.646169,16.1288693 114.740089,0 113.081033,0" id="react-path-625"></path>
                                            </g>
                                            <g id="Color/Hair/Brown-Clipped">
                                                <mask id="mask-ztvjcljn1n-22" fill="white">
                                                    <use xlink:href="#path-ztvjcljn1n-21"></use>
                                                </mask>
                                                <g id="react-path-625"></g>
                                                <g id="Color/Hair/Brown" mask="url(#mask-ztvjcljn1n-22)">
                                                    <g transform="translate(-59, -26)" id="Color">
                                                        <rect id="Rectangle" fill="#A55728" fill-rule="nonzero" x="0" y="0" width="264" height="244"></rect>
                                                    </g>
                                                </g>
                                            </g>
                                        </g>
                                        <g id="Skin/ðŸ‘¶ðŸ½-03-Brown-Clipped">
                                            <mask id="mask-ztvjcljn1n-24" fill="white">
                                                <use xlink:href="#path-ztvjcljn1n-23"></use>
                                            </mask>
                                            <g id="react-path-623"></g>
                                            <g id="Skin/ðŸ‘¶ðŸ½-03-Brown" mask="url(#mask-ztvjcljn1n-24)">
                                                <g transform="translate(-55.4174, -15.9855)" id="Color">
                                                    <rect id="Rectangle" fill="#4A312C" fill-rule="nonzero" x="0" y="0" width="264" height="280"></rect>
                                                </g>
                                            </g>
                                        </g>
                                    </g>
                                </g>
                            </g>
                        </g>
                    </g>
                </g>
            </g>
        </g>
    </g>
</svg>